<svg width="66" height="66" viewBox="0 0 66 66" fill="none" xmlns="http://www.w3.org/2000/svg">
<path d="M33.3027 65.6845C15.2514 65.7627 0.408674 50.7422 0.839087 32.3969C1.24341 14.9251 15.7209 0.491321 33.72 0.686901C51.5496 0.882481 66.301 15.7204 65.8184 34.0919C65.3619 51.4854 51.0018 65.7758 33.3027 65.6845ZM4.79106 33.2313C4.93453 49.5687 18.186 62.151 33.8374 61.8772C48.9932 61.6034 61.8404 49.2558 61.8404 33.1922C61.8404 16.8548 48.4845 4.22037 32.781 4.52026C17.6252 4.79407 4.89541 17.1808 4.79106 33.2313Z" fill="white"/>
<path d="M26.5204 56.062C26.5204 48.3822 26.5204 40.7677 26.5204 33.0749C24.8248 33.0749 23.1814 33.0749 21.4989 33.0749C21.4989 30.4672 21.4989 27.9377 21.4989 25.3299C21.7206 25.3169 21.9424 25.2908 22.1771 25.2908C23.3901 25.2908 24.6161 25.2647 25.8291 25.3039C26.3639 25.3169 26.5465 25.1735 26.5334 24.6258C26.5073 22.644 26.5073 20.6751 26.5204 18.6933C26.5334 16.4637 27.1595 14.4427 28.7507 12.8259C30.2898 11.2612 32.2592 10.4137 34.3983 10.2833C37.8416 10.0878 41.2979 10.1138 44.7543 10.0486C44.7934 10.0486 44.8325 10.0878 44.9108 10.1269C44.9108 12.7476 44.9108 15.3814 44.9108 18.0804C44.663 18.0935 44.4282 18.1065 44.2065 18.1065C42.6413 18.1065 41.0762 18.1065 39.511 18.1065C37.9329 18.1196 37.0068 19.0583 37.0068 20.6099C37.0068 22.0833 37.0068 23.5697 37.0199 25.0431C37.0199 25.0822 37.0459 25.1213 37.0851 25.2647C39.6676 25.2647 42.2761 25.2647 45.0151 25.2647C44.676 27.9116 44.363 30.4411 44.0239 33.0618C41.6631 33.0618 39.3545 33.0618 36.9807 33.0618C36.9807 40.7807 36.9807 48.4214 36.9807 56.0881C33.4722 56.062 30.055 56.062 26.5204 56.062Z" fill="white"/>
</svg>
