<svg width="65" height="66" viewBox="0 0 65 66" fill="none" xmlns="http://www.w3.org/2000/svg">
<path d="M32.4475 65.0213C14.4091 65.0865 -0.433774 50.0741 0.00968589 31.6966C0.42706 14.2451 14.8917 -0.206455 32.904 0.0022322C50.7337 0.210919 65.4462 15.0538 64.9897 33.3661C64.5592 50.7784 50.199 65.1257 32.4475 65.0213ZM61.0376 32.5313C60.9072 16.4233 48.1121 4.07163 32.9431 3.82382C17.3046 3.576 3.97474 16.1885 3.98779 32.5444C4.00083 48.6263 16.8742 60.9519 32.0171 61.2128C47.6686 61.4737 60.9072 48.8742 61.0376 32.5313Z" fill="white"/>
<path d="M24.0088 37.0051C23.8653 35.6486 23.7349 34.3965 23.6044 33.0791C22.2871 32.9878 20.9045 32.6487 19.6655 31.8792C16.2221 29.7141 14.8396 26.4533 14.8787 22.5404C14.9309 16.8668 19.822 12.093 25.4956 12.08C28.9259 12.067 32.3562 12.08 35.7996 12.08C36.3213 12.08 36.843 12.1061 37.0387 12.68C37.2343 13.2408 37.0778 13.7234 36.5691 14.1147C36.0344 14.5321 35.5257 14.9625 35.03 15.432C34.4822 15.9538 33.9214 16.4233 33.0345 16.2016C33.3997 17.0363 33.804 17.7798 34.0518 18.5754C35.4735 23.1013 34.717 27.1055 31.1693 30.4314C30.765 30.8097 30.3607 31.227 30.0085 31.6575C29.3564 32.4531 29.2911 33.3139 29.9433 34.0965C30.7911 35.1008 31.665 36.1182 32.6693 36.9529C37.2734 40.8006 37.7169 49.5133 32.3823 53.5566C30.6607 54.8609 28.7433 55.6695 26.6173 55.9173C23.0827 56.3217 19.6785 55.8913 16.5482 54.0522C14.4352 52.8131 12.9222 51.0523 12.544 48.5611C12.1788 46.096 12.8831 43.8526 14.3439 41.8831C16.5743 38.8702 19.6394 37.3572 23.3436 37.0703C23.6175 37.0312 23.8783 37.0181 24.0088 37.0051ZM24.9609 40.3049C23.9175 40.2919 22.7305 40.5397 21.648 41.1266C19.5481 42.2483 18.0481 43.8265 18.1916 46.396C18.322 48.6524 19.535 50.2698 21.5306 51.2349C23.774 52.3175 26.0826 52.0436 28.3781 51.3393C31.9519 50.2306 32.891 44.8961 29.9955 42.6788C29.5129 42.3136 29.0433 41.9223 28.6129 41.4918C27.6608 40.5006 26.4478 40.3049 24.9609 40.3049ZM20.3046 21.0666C20.5263 22.3187 20.6306 23.3752 20.9176 24.3925C21.4523 26.2838 22.3393 27.9924 24.0218 29.1271C25.613 30.1967 27.2825 29.7793 28.2086 28.1098C29.1607 26.4012 29.2781 24.5621 28.9781 22.6709C28.639 20.4797 27.8434 18.4841 26.1478 16.9711C24.2957 15.3147 22.1827 15.6799 21.1523 17.9232C20.6958 18.9406 20.5524 20.1145 20.3046 21.0666Z" fill="white"/>
<path d="M43.2993 29.9358C43.2993 27.4837 43.2993 25.1621 43.2993 22.8404C43.2993 22.5404 43.3123 22.2144 43.4427 21.9666C43.7949 21.3144 46.2078 21.3144 46.573 21.9666C46.7165 22.2274 46.7687 22.5926 46.7687 22.9056C46.7817 24.9925 46.7817 27.0794 46.7817 29.1663C46.7817 29.401 46.7817 29.6358 46.7817 29.9488C47.2252 29.9488 47.5904 29.9488 47.9556 29.9488C49.4947 29.9488 51.0468 29.9488 52.5858 29.9488C53.6162 29.9488 53.8771 30.2227 53.8771 31.2792C53.8771 31.827 53.8771 32.3618 53.8771 32.9096C53.8641 33.7965 53.5771 34.0835 52.7032 34.0965C50.9816 34.0965 49.2729 34.0965 47.5513 34.0965C47.3165 34.0965 47.0817 34.0965 46.7687 34.0965C46.7687 34.5791 46.7687 34.9834 46.7687 35.4008C46.7687 37.292 46.7687 39.1832 46.7687 41.0745C46.7687 42.2483 46.5209 42.4962 45.3731 42.5092C45.0862 42.5092 44.8123 42.5092 44.5253 42.5092C43.521 42.5092 43.2862 42.2744 43.2732 41.2832C43.2732 39.1572 43.2732 37.0181 43.2732 34.8921C43.2732 34.6573 43.2732 34.4226 43.2732 34.1356C42.9732 34.1226 42.7384 34.1095 42.5167 34.1095C40.782 34.1095 39.0342 34.1095 37.2995 34.1095C36.4908 34.1095 36.1517 33.7835 36.1387 32.9748C36.1256 32.3487 36.1256 31.7096 36.1387 31.0836C36.1648 30.314 36.4908 29.988 37.2734 29.9749C39.0081 29.9619 40.7559 29.9749 42.4906 29.9749C42.7515 29.9358 42.9862 29.9358 43.2993 29.9358Z" fill="white"/>
</svg>
